<?xml version="1.0" standalone="no"?>
<!DOCTYPE svg PUBLIC "-//W3C//DTD SVG 20010904//EN"
 "http://www.w3.org/TR/2001/REC-SVG-20010904/DTD/svg10.dtd">
<svg version="1.0" xmlns="http://www.w3.org/2000/svg"
 width="512.000000pt" height="512.000000pt" viewBox="0 0 512.000000 512.000000"
 preserveAspectRatio="xMidYMid meet">

<g transform="translate(0.000000,512.000000) scale(0.100000,-0.100000)"
fill="#000000" stroke="none">
<path d="M2405 5079 c-293 -24 -609 -129 -870 -289 -224 -137 -449 -355 -599
-580 -216 -324 -326 -692 -326 -1090 0 -613 215 -1082 814 -1775 311 -360
1122 -1253 1147 -1263 19 -8 1220 1421 1415 1683 444 598 605 1074 539 1600
-116 929 -868 1644 -1805 1715 -149 11 -169 11 -315 -1z m520 -1074 c28 -14
54 -42 90 -94 27 -41 67 -88 88 -105 l39 -31 226 -5 c215 -5 229 -6 258 -27
64 -46 64 -42 64 -676 l0 -573 -22 -44 c-17 -33 -35 -51 -68 -68 l-45 -22
-996 2 -995 3 -37 25 c-21 14 -46 44 -57 66 -20 40 -20 58 -18 627 3 574 3
586 24 613 50 67 54 69 297 74 279 6 264 -1 403 199 9 13 35 32 58 42 38 18
64 19 346 17 282 -3 308 -5 345 -23z"/>
<path d="M2458 3574 c-197 -47 -347 -210 -378 -412 -38 -244 119 -487 358
-553 260 -73 533 74 612 328 25 81 27 216 4 294 -74 251 -341 405 -596 343z
m235 -174 c175 -66 263 -275 188 -446 -30 -67 -102 -137 -174 -169 -176 -80
-377 8 -448 193 -26 71 -23 173 8 244 38 84 125 162 213 189 50 15 158 10 213
-11z"/>
</g>
</svg>
